# xmcd
# 
# Track frame offsets:
#     150
#     18047
#     34107
#     47302
#     62070
#     76467
#     94620
#     112335
#     134777
# 
# Disc length: 1842
# 
# Revision: 1
# Processed by: cddbd v1.5.2PL0 Copyright (c) Steve Scherf et al.
# Submitted via: BonkEnc v1.0
# 
DISCID=71073009
DTITLE=Clube da Esquina - Classicos Estado de Minas - Vol. 2
DYEAR=1998
DGENRE=MPB
TTITLE0=Instrumental-Feh Cega, Faca Amolada
TTITLE1=Instrumental-Tostao
TTITLE2=Bauxita-Para Lennon e McCartney
TTITLE3=Instrumental-Clube da Esquina 1
TTITLE4=Instrumental-Idolatrada
TTITLE5=Tatah Spalla-Clube da Esquina 2
TTITLE6=Instrumental-Ponta de Areia
TTITLE7=Instrumental-O Que Foi Feito de Vera
TTITLE8=Vinheta "Futebol Tostao"
EXTD=1998
EXTT0=
EXTT1=
EXTT2=
EXTT3=
EXTT4=
EXTT5=
EXTT6=
EXTT7=
EXTT8=
PLAYORDER=
